
<svg xmlns="http://www.w3.org/2000/svg" xmlns:xlink="http://www.w3.org/1999/xlink" version="1.1" width="500" height="500" viewBox="0 0 500 500" xml:space="preserve">
<desc>Created with Fabric.js 3.6.3</desc>
<defs>
</defs>
<rect x="0" y="0" width="100%" height="100%" fill="#225378"></rect>
<g transform="matrix(1 0 0 1 325.83183009327 256.07999999999987)" style=""  ><path fill="#ffffff" opacity="1" d="M-128.93-14.46C-135.99-14.46-141.70-8.78-141.70-1.72C-141.70 5.31-135.99 11.06-128.93 11.06C-125.75 11.06-122.91 9.87-120.75 7.98C-120.64 7.88-120.41 7.61-120.41 7.24C-120.41 7.07-120.41 5.89-120.41 5.07C-120.41 4.70-120.64 4.67-120.85 4.94C-122.67 7.41-125.58 9.03-128.93 9.03C-134.77 9.03-139.54 4.13-139.54-1.72C-139.54-7.57-134.77-12.43-128.93-12.43C-125.58-12.43-122.67-10.85-120.85-8.38C-120.64-8.11-120.41-8.14-120.41-8.55C-120.41-9.36-120.41-10.51-120.41-10.71C-120.41-11.05-120.64-11.35-120.75-11.42C-122.84-13.21-125.75-14.46-128.93-14.46Z"/><path fill="#ffffff" opacity="1" d="M-97.86 8.42L-108.51 8.42C-108.81 8.42-108.88 8.32-108.88 8.02L-108.88-0.57C-108.88-0.87-108.78-0.94-108.44-0.94L-99.79-0.94C-99.22-0.94-98.74-1.41-98.74-1.99L-98.74-2.06C-98.74-2.63-99.22-3.10-99.79-3.10L-108.51-3.10C-108.81-3.10-108.88-3.21-108.88-3.54L-108.88-11.52C-108.88-11.79-108.78-11.89-108.44-11.89L-98.51-11.89C-97.93-11.89-97.46-12.37-97.46-12.94L-97.46-13.01C-97.46-13.58-97.93-14.06-98.51-14.06L-110.03-14.06C-110.61-14.06-111.05-13.58-111.05-13.01L-111.05 9.57C-111.05 10.14-110.61 10.62-110.03 10.62L-97.86 10.62C-97.29 10.62-96.82 10.14-96.82 9.57L-96.82 9.47C-96.82 8.89-97.29 8.42-97.86 8.42Z"/><path fill="#ffffff" opacity="1" d="M-80.49-5.00C-79.88-5.78-74.78-12.33-74.78-12.33C-74.41-12.77-74.51-13.45-74.95-13.79L-75.01-13.85C-75.49-14.19-76.13-14.12-76.50-13.65C-76.50-13.65-84.28-3.65-84.68-3.10C-85.09-2.56-85.26-2.63-85.26-3.41C-85.26-4.15-85.26-13.01-85.26-13.01C-85.26-13.58-85.73-14.06-86.30-14.06L-86.40-14.06C-86.98-14.06-87.45-13.58-87.45-13.01L-87.45 9.57C-87.45 10.14-86.98 10.62-86.40 10.62L-86.30 10.62C-85.73 10.62-85.26 10.14-85.26 9.57C-85.26 9.57-85.26 3.45-85.26 2.47C-85.26 1.49-85.12 0.98-84.71 0.48C-84.44 0.11-83.63-0.91-83.13-1.58C-82.86-1.92-82.55-1.96-82.28-1.52C-82.01-1.08-74.88 10.14-74.88 10.14C-74.57 10.62-73.90 10.75-73.43 10.45L-73.36 10.42C-72.85 10.08-72.72 9.43-73.02 8.96C-73.02 8.96-80.39-2.63-80.79-3.21C-81.17-3.81-81.10-4.22-80.49-5.00Z"/><path fill="#ffffff" opacity="1" d="M-55.51-4.83L-60.14-4.83C-60.45-4.83-60.55-4.93-60.55-5.20L-60.55-13.01C-60.55-13.65-60.95-14.06-61.60-14.06L-61.70-14.06L-64.40-14.06C-64.98-14.06-65.42-13.58-65.42-13.01L-65.42-12.94C-65.42-12.37-64.94-11.89-64.40-11.89C-63.83-11.89-63.39-11.93-63.05-11.96C-62.71-11.99-62.64-11.83-62.68-11.62C-62.78-10.57-62.74-9.66-62.74-8.65C-62.74-8.58-62.74 9.57-62.74 9.57C-62.74 10.14-62.27 10.62-61.70 10.62L-55.51 10.62C-50.81 10.62-46.99 7.54-46.99 2.81C-46.99-1.89-50.81-4.83-55.51-4.83ZM-55.51 8.42L-60.14 8.42C-60.45 8.42-60.55 8.35-60.55 8.05L-60.55-2.23C-60.55-2.56-60.48-2.67-60.18-2.67L-55.51-2.67C-52.00-2.67-49.16-0.67-49.16 2.81C-49.16 6.33-52.00 8.42-55.51 8.42Z"/><path fill="#ffffff" opacity="1" d="M-18.77-14.46C-25.09-14.46-30.36-9.90-31.38-3.88C-31.48-3.27-31.51-3.10-32.19-3.10C-32.43-3.10-34.59-3.10-34.86-3.10C-35.16-3.10-35.27-3.17-35.27-3.48L-35.27-13.01C-35.27-13.58-35.74-14.06-36.31-14.06L-36.41-14.06C-36.99-14.06-37.46-13.58-37.46-13.01L-37.46 9.57C-37.46 10.14-36.99 10.62-36.41 10.62L-36.31 10.62C-35.74 10.62-35.27 10.14-35.27 9.57L-35.27-0.57C-35.27-0.84-35.16-0.94-34.86-0.94C-34.59-0.94-32.46-0.94-32.19-0.94C-31.51-0.94-31.48-0.54-31.41-0.06C-30.60 6.19-25.26 11.06-18.77 11.06C-11.71 11.06-6.30 5.31-6.30-1.72C-6.30-8.78-11.71-14.46-18.77-14.46ZM-18.77 9.03C-24.62 9.03-29.38 4.13-29.38-1.72C-29.38-7.60-24.62-12.47-18.77-12.47C-12.92-12.47-8.50-7.60-8.50-1.72C-8.50 4.13-12.92 9.03-18.77 9.03Z"/><path fill="#ffffff" opacity="1" d="M10.57-14.06L4.38-14.06C3.81-14.06 3.33-13.58 3.33-13.01L3.33 9.57C3.33 10.14 3.81 10.62 4.38 10.62L4.48 10.62C5.06 10.62 5.53 10.14 5.53 9.57L5.53 1.63C5.53 1.32 5.63 1.26 5.94 1.26L10.57 1.26C15.27 1.26 19.08-1.82 19.08-6.52C19.08-11.22 15.27-14.06 10.57-14.06ZM10.57-0.94L5.90-0.94C5.60-0.94 5.53-1.04 5.53-1.35L5.53-11.52C5.53-11.79 5.63-11.89 5.94-11.89L10.57-11.89C14.08-11.89 16.92-10.03 16.92-6.52C16.92-3.00 14.08-0.94 10.57-0.94Z"/><path fill="#ffffff" opacity="1" d="M45.11 10.62C45.69 10.62 46.16 10.14 46.16 9.57L46.16-12.97C46.16-13.41 45.85-13.79 45.45-13.95C44.98-14.16 44.43-14.02 44.13-13.58C44.13-13.58 32.00 4.06 31.49 4.80C30.95 5.58 30.64 5.45 30.64 4.40C30.64 3.35 30.64-13.01 30.64-13.01C30.64-13.58 30.17-14.06 29.60-14.06L29.50-14.06C28.92-14.06 28.45-13.58 28.45-13.01L28.45 9.54C28.45 9.87 28.72 10.38 29.09 10.52C29.60 10.72 30.14 10.62 30.44 10.18C30.44 10.18 42.61-7.53 43.22-8.38C43.79-9.26 43.96-8.95 43.96-8.07C43.96-7.19 43.96 9.57 43.96 9.57C43.96 10.14 44.43 10.62 45.01 10.62L45.11 10.62Z"/><path fill="#ffffff" opacity="1" d="M69.24-14.06L55.99-14.06C55.42-14.06 54.95-13.58 54.95-13.01L54.95-12.94C54.95-12.37 55.42-11.89 55.99-11.89L61.17-11.89C61.47-11.89 61.54-11.79 61.54-11.45L61.54 9.57C61.54 10.14 62.01 10.62 62.59 10.62L62.65 10.62C63.23 10.62 63.70 10.14 63.70 9.57L63.70-11.52C63.70-11.79 63.80-11.89 64.14-11.89L69.24-11.89C69.82-11.89 70.29-12.37 70.29-12.94L70.29-13.01C70.29-13.58 69.82-14.06 69.24-14.06Z"/><path fill="#ffffff" opacity="1" d="M95.74 10.62C96.32 10.62 96.79 10.14 96.79 9.57L96.79-12.97C96.79-13.41 96.49-13.79 96.08-13.95C95.61-14.16 95.07-14.02 94.76-13.58C94.76-13.58 82.63 4.06 82.12 4.80C81.58 5.58 81.28 5.45 81.28 4.40C81.28 3.35 81.28-13.01 81.28-13.01C81.28-13.58 80.80-14.06 80.23-14.06L80.13-14.06C79.55-14.06 79.08-13.58 79.08-13.01L79.08 9.54C79.08 9.87 79.35 10.38 79.72 10.52C80.23 10.72 80.77 10.62 81.07 10.18C81.07 10.18 93.24-7.53 93.85-8.38C94.43-9.26 94.59-8.95 94.59-8.07C94.59-7.19 94.59 9.57 94.59 9.57C94.59 10.14 95.07 10.62 95.64 10.62L95.74 10.62Z"/></g><g transform="matrix(1 0 0 1 322.955185772046 285.8971825233401)" style=""  ><path fill="#ffffff" opacity="1" d="M-131.58-6.49L-131.63-6.49C-131.90-6.49-132.11-6.27-132.11-6.00L-132.11-1.59C-132.11-1.51-132.18-1.43-132.25-1.43L-138.07-1.43C-138.15-1.43-138.21-1.51-138.21-1.59L-138.21-6.00C-138.21-6.27-138.43-6.49-138.70-6.49L-138.74-6.49C-139.01-6.49-139.23-6.27-139.23-6.00L-139.23 4.42C-139.23 4.68-139.01 4.90-138.74 4.90L-138.70 4.90C-138.43 4.90-138.21 4.68-138.21 4.42L-138.21-0.28C-138.21-0.37-138.15-0.43-138.07-0.43L-132.25-0.43C-132.18-0.43-132.11-0.37-132.11-0.28L-132.11 4.42C-132.11 4.68-131.90 4.90-131.63 4.90L-131.58 4.90C-131.32 4.90-131.10 4.68-131.10 4.42L-131.10-6.00C-131.10-6.27-131.32-6.49-131.58-6.49Z"/><path fill="#ffffff" opacity="1" d="M-126.16 1.19C-126.16 3.37-124.36 5.10-122.18 5.10C-121.07 5.10-120.06 4.65-119.38 3.86C-119.35 3.81-119.24 3.78-119.24 3.96C-119.24 4.07-119.24 4.43-119.24 4.43C-119.24 4.70-119.03 4.92-118.76 4.92L-118.73 4.92C-118.46 4.92-118.25 4.70-118.25 4.43L-118.25-2.09C-118.25-2.35-118.46-2.57-118.73-2.57L-118.76-2.57C-119.03-2.57-119.24-2.35-119.24-2.09C-119.24-1.90-119.24-1.65-119.24-1.64C-119.24-1.43-119.40-1.48-119.45-1.56C-120.06-2.32-121.13-2.76-122.21-2.76C-124.39-2.76-126.16-1.00-126.16 1.19ZM-125.16 1.19C-125.16-0.43-123.85-1.82-122.21-1.82C-120.59-1.82-119.26-0.43-119.26 1.19C-119.26 2.81-120.55 4.17-122.18 4.17C-123.82 4.17-125.16 2.81-125.16 1.19Z"/><path fill="#ffffff" opacity="1" d="M-105.81-2.57L-105.86-2.57C-106.12-2.57-106.34-2.35-106.34-2.09C-106.34-2.07-106.34-1.67-106.34-1.65C-106.34-1.43-106.45-1.50-106.47-1.51C-107.25-2.34-108.29-2.76-109.35-2.76C-111.52-2.76-113.30-1.15-113.30 1.19C-113.30 3.61-111.71 5.10-109.35 5.10C-108.29 5.10-107.14 4.67-106.41 3.76C-106.34 3.67-106.25 4.23-106.34 4.57C-106.44 4.93-106.75 5.35-107.22 5.82C-107.65 6.26-108.20 6.52-108.78 6.55C-109.04 6.57-109.43 6.69-109.39 7.19C-109.34 7.58-108.96 7.69-108.68 7.65C-107.84 7.52-107.11 7.18-106.48 6.55C-105.72 5.79-105.34 4.88-105.34 3.82L-105.34-2.09C-105.34-2.35-105.56-2.57-105.81-2.57ZM-109.35 4.17C-111.10 4.17-112.29 2.97-112.29 1.19C-112.29-0.37-110.98-1.82-109.35-1.82C-107.72-1.82-106.34-0.45-106.34 1.19C-106.34 2.81-107.72 4.17-109.35 4.17Z"/><path fill="#ffffff" opacity="1" d="M-92.68 0.38C-92.79-0.40-93.11-1.07-93.66-1.62C-94.44-2.40-95.36-2.76-96.45-2.76C-97.54-2.76-98.47-2.40-99.25-1.62C-100.01-0.86-100.40 0.06-100.40 1.16C-100.40 2.25-100.01 3.17-99.25 3.95C-98.47 4.71-97.54 5.10-96.45 5.10C-95.31 5.10-94.24 4.62-93.47 3.73C-93.25 3.47-93.25 3.12-93.54 2.93C-93.89 2.72-94.11 2.87-94.47 3.31C-94.83 3.75-95.66 4.17-96.45 4.17C-97.26 4.17-97.95 3.78-98.51 3.22C-99.03 2.72-99.31 2.08-99.37 1.30C-99.39 1.06-99.34 1.00-99.12 1.00L-93.15 1.00C-92.71 1.00-92.65 0.61-92.68 0.38ZM-94.05 0.00L-98.86 0.00C-99.10 0.00-99.18-0.01-99.07-0.22C-98.95-0.42-98.78-0.65-98.53-0.90C-97.95-1.48-97.26-1.82-96.45-1.82C-95.66-1.82-94.97-1.48-94.39-0.90C-94.18-0.70-94.02-0.50-93.91-0.29C-93.82-0.14-93.72 0.00-94.05 0.00Z"/><path fill="#ffffff" opacity="1" d="M-79.00 4.10C-79.00 4.10-81.49 0.80-81.57 0.70C-81.63 0.59-81.62 0.49-81.54 0.39C-81.45 0.31-79.46-1.53-79.46-1.53C-79.26-1.70-79.25-2.01-79.42-2.21L-79.45-2.24C-79.64-2.43-79.93-2.45-80.14-2.28C-80.14-2.28-82.88 0.39-83.01 0.52C-83.15 0.64-83.24 0.58-83.24 0.41C-83.24 0.25-83.24-2.09-83.24-2.09C-83.24-2.35-83.46-2.57-83.72-2.57L-83.75-2.57C-84.02-2.57-84.24-2.35-84.24-2.09C-84.24-2.09-84.24 0.25-84.24 0.41C-84.24 0.58-84.33 0.64-84.47 0.52C-84.61 0.39-87.34-2.28-87.34-2.28C-87.55-2.45-87.86-2.43-88.03-2.24L-88.06-2.21C-88.23-2.01-88.22-1.70-88.03-1.53C-88.03-1.53-86.02 0.31-85.94 0.39C-85.84 0.49-85.83 0.59-85.91 0.70C-85.97 0.80-88.48 4.10-88.48 4.10C-88.64 4.31-88.61 4.62-88.39 4.78L-88.36 4.81C-88.14 4.96-87.84 4.92-87.67 4.70C-87.67 4.70-85.30 1.41-85.24 1.30C-85.16 1.20-85.05 1.19-84.96 1.27C-84.89 1.33-84.53 1.64-84.36 1.81C-84.28 1.86-84.24 1.97-84.24 2.08C-84.24 2.19-84.24 4.42-84.24 4.42C-84.24 4.68-84.02 4.90-83.75 4.90L-83.72 4.90C-83.46 4.90-83.24 4.68-83.24 4.42C-83.24 4.42-83.24 2.19-83.24 2.08C-83.24 1.97-83.19 1.86-83.13 1.81C-82.94 1.64-82.55 1.34-82.48 1.28C-82.40 1.20-82.27 1.22-82.21 1.31C-82.13 1.42-79.81 4.70-79.81 4.70C-79.65 4.92-79.34 4.96-79.12 4.81L-79.09 4.78C-78.89 4.62-78.84 4.31-79.00 4.10Z"/><path fill="#ffffff" opacity="1" d="M-68.03-2.57L-68.08-2.57C-68.34-2.57-68.56-2.35-68.56-2.09L-68.56 0.38C-68.56 0.45-68.62 0.52-68.70 0.52L-72.88 0.52C-72.96 0.52-73.02 0.45-73.02 0.38L-73.02-2.09C-73.02-2.35-73.24-2.57-73.51-2.57L-73.55-2.57C-73.82-2.57-74.04-2.35-74.04-2.09L-74.04 4.42C-74.04 4.68-73.82 4.90-73.55 4.90L-73.51 4.90C-73.24 4.90-73.02 4.68-73.02 4.42L-73.02 1.67C-73.02 1.59-72.96 1.53-72.88 1.53L-68.70 1.53C-68.62 1.53-68.56 1.59-68.56 1.67L-68.56 4.42C-68.56 4.68-68.34 4.90-68.08 4.90L-68.03 4.90C-67.76 4.90-67.55 4.68-67.55 4.42L-67.55-2.09C-67.55-2.35-67.76-2.57-68.03-2.57Z"/><path fill="#ffffff" opacity="1" d="M-58.67-2.76C-60.84-2.76-62.60-1.00-62.60 1.17C-62.60 3.34-60.84 5.10-58.67 5.10C-56.49 5.10-54.72 3.34-54.72 1.17C-54.72-1.00-56.49-2.76-58.67-2.76ZM-58.67 4.17C-60.28 4.17-61.60 2.79-61.60 1.17C-61.60-0.45-60.28-1.82-58.67-1.82C-57.05-1.82-55.74-0.45-55.74 1.17C-55.74 2.79-57.05 4.17-58.67 4.17Z"/><path fill="#ffffff" opacity="1" d="M-43.71 2.87C-44.26 3.62-45.10 4.17-46.08 4.17C-47.70 4.17-49.01 2.78-49.01 1.16C-49.01-0.47-47.70-1.82-46.08-1.82C-45.16-1.82-44.35-1.36-43.80-0.68C-43.55-0.37-43.46-0.48-43.46-0.72C-43.46-0.82-43.46-1.31-43.46-1.57C-43.46-1.73-43.52-1.82-43.58-1.89C-44.24-2.48-45.14-2.76-46.08-2.76C-48.26-2.76-50.01-1.01-50.01 1.16C-50.01 3.32-48.26 5.10-46.08 5.10C-45.14 5.10-44.27 4.76-43.60 4.21C-43.51 4.14-43.46 4.04-43.46 3.89C-43.46 3.61-43.46 3.11-43.46 2.92C-43.46 2.65-43.62 2.75-43.71 2.87Z"/><path fill="#ffffff" opacity="1" d="M-33.83-2.57L-38.47-2.57C-38.73-2.57-38.95-2.35-38.95-2.09L-38.95-2.06C-38.95-1.79-38.73-1.57-38.47-1.57L-36.81-1.57C-36.72-1.57-36.66-1.50-36.66-1.42L-36.66 4.42C-36.66 4.68-36.44 4.90-36.17 4.90L-36.13 4.90C-35.86 4.90-35.64 4.68-35.64 4.42L-35.64-1.42C-35.64-1.50-35.58-1.57-35.50-1.57L-33.83-1.57C-33.57-1.57-33.35-1.79-33.35-2.06L-33.35-2.09C-33.35-2.35-33.57-2.57-33.83-2.57Z"/><path fill="#ffffff" opacity="1" d="M-28.48 4.42C-28.48 4.68-28.36 4.90-28.14 4.90C-27.67 4.90-27.83 4.35-27.49 4.54C-26.74 4.98-25.69 5.10-25.08 5.10C-23.21 5.10-21.84 3.54-21.84 1.86C-21.84 0.33-22.91-1.12-25.08-1.12C-25.94-1.12-26.75-1.03-27.22-0.97C-27.34-0.95-27.47-0.98-27.47-1.17C-27.47-1.37-27.47-2.10-27.47-2.10C-27.47-2.37-27.69-2.57-27.95-2.57L-28.00-2.57C-28.27-2.57-28.48-2.37-28.48-2.10ZM-27.47 3.50C-27.47 3.11-27.47 1.47-27.47 0.69C-27.47 0.08-27.19-0.19-25.07-0.19C-23.54-0.17-22.84 0.81-22.84 1.86C-22.84 3.08-23.74 4.17-25.07 4.17C-26.07 4.17-27.47 3.98-27.47 3.50Z"/><path fill="#ffffff" opacity="1" d=""/><path fill="#ffffff" opacity="1" d="M-3.96 5.10C-3.34 5.10-2.40 4.88-1.95 4.26C-1.90 4.20-1.82 4.23-1.82 4.29C-1.82 4.32-1.82 4.46-1.82 4.49C-1.82 4.71-1.59 4.90-1.34 4.90L-1.29 4.90C-1.03 4.90-0.79 4.68-0.79 4.40L-0.81-2.07C-0.81-2.35-1.03-2.57-1.31-2.57L-1.34-2.57C-1.62-2.57-1.84-2.35-1.84-2.07C-1.84-2.07-1.84 1.95-1.84 2.14C-1.84 3.47-2.53 4.14-3.96 4.14C-5.07 4.14-5.96 3.43-5.96 1.86L-5.96-2.07C-5.96-2.35-6.18-2.57-6.44-2.57L-6.49-2.57C-6.75-2.57-6.99-2.35-6.99-2.07L-6.99 1.92C-6.99 4.39-5.41 5.10-3.96 5.10Z"/><path fill="#ffffff" opacity="1" d=""/><path fill="#ffffff" opacity="1" d="M19.10-2.57L14.46-2.57C14.20-2.57 13.98-2.35 13.98-2.09L13.98-2.06C13.98-1.79 14.20-1.57 14.46-1.57L16.12-1.57C16.21-1.57 16.27-1.50 16.27-1.42L16.27 4.42C16.27 4.68 16.49 4.90 16.76 4.90L16.80 4.90C17.07 4.90 17.29 4.68 17.29 4.42L17.29-1.42C17.29-1.50 17.35-1.57 17.43-1.57L19.10-1.57C19.36-1.57 19.58-1.79 19.58-2.06L19.58-2.09C19.58-2.35 19.36-2.57 19.10-2.57Z"/><path fill="#ffffff" opacity="1" d="M28.10-2.76C25.93-2.76 24.17-1.00 24.17 1.17C24.17 3.34 25.93 5.10 28.10 5.10C30.28 5.10 32.04 3.34 32.04 1.17C32.04-1.00 30.28-2.76 28.10-2.76ZM28.10 4.17C26.49 4.17 25.16 2.79 25.16 1.17C25.16-0.45 26.49-1.82 28.10-1.82C29.72-1.82 31.03-0.45 31.03 1.17C31.03 2.79 29.72 4.17 28.10 4.17Z"/><path fill="#ffffff" opacity="1" d="M42.45-2.09C42.45-2.35 42.23-2.57 41.97-2.57L41.93-2.57C41.67-2.57 41.45-2.35 41.45-2.09C41.45-2.09 41.45-0.54 41.45-0.36C41.45 0.94 40.94 1.59 39.52 1.59C38.44 1.59 37.72 0.91 37.72-0.65L37.72-2.09C37.72-2.35 37.50-2.57 37.24-2.57L37.19-2.57C36.93-2.57 36.71-2.35 36.71-2.09L36.71-0.58C36.71 1.84 38.10 2.53 39.52 2.53C40.13 2.53 40.84 2.40 41.31 1.72C41.37 1.62 41.45 1.61 41.45 1.81C41.45 1.95 41.45 4.42 41.45 4.42C41.45 4.68 41.67 4.90 41.93 4.90L41.98 4.90C42.25 4.90 42.47 4.68 42.47 4.42L42.45-2.09Z"/><path fill="#ffffff" opacity="1" d="M53.70-2.57L53.65-2.57C53.39-2.57 53.17-2.35 53.17-2.09L53.17 0.38C53.17 0.45 53.10 0.52 53.03 0.52L48.85 0.52C48.77 0.52 48.71 0.45 48.71 0.38L48.71-2.09C48.71-2.35 48.49-2.57 48.22-2.57L48.17-2.57C47.91-2.57 47.69-2.35 47.69-2.09L47.69 4.42C47.69 4.68 47.91 4.90 48.17 4.90L48.22 4.90C48.49 4.90 48.71 4.68 48.71 4.42L48.71 1.67C48.71 1.59 48.77 1.53 48.85 1.53L53.03 1.53C53.10 1.53 53.17 1.59 53.17 1.67L53.17 4.42C53.17 4.68 53.39 4.90 53.65 4.90L53.70 4.90C53.96 4.90 54.18 4.68 54.18 4.42L54.18-2.09C54.18-2.35 53.96-2.57 53.70-2.57Z"/><path fill="#ffffff" opacity="1" d="M63.06-2.76C60.89-2.76 59.13-1.00 59.13 1.17C59.13 3.34 60.89 5.10 63.06 5.10C65.24 5.10 67.00 3.34 67.00 1.17C67.00-1.00 65.24-2.76 63.06-2.76ZM63.06 4.17C61.45 4.17 60.12 2.79 60.12 1.17C60.12-0.45 61.45-1.82 63.06-1.82C64.68-1.82 65.99-0.45 65.99 1.17C65.99 2.79 64.68 4.17 63.06 4.17Z"/><path fill="#ffffff" opacity="1" d="M77.41-2.09C77.41-2.35 77.19-2.57 76.93-2.57L76.89-2.57C76.63-2.57 76.41-2.35 76.41-2.09C76.41-2.09 76.41-0.54 76.41-0.36C76.41 0.94 75.90 1.59 74.48 1.59C73.40 1.59 72.68 0.91 72.68-0.65L72.68-2.09C72.68-2.35 72.46-2.57 72.20-2.57L72.15-2.57C71.89-2.57 71.67-2.35 71.67-2.09L71.67-0.58C71.67 1.84 73.06 2.53 74.48 2.53C75.08 2.53 75.80 2.40 76.27 1.72C76.33 1.62 76.41 1.61 76.41 1.81C76.41 1.95 76.41 4.42 76.41 4.42C76.41 4.68 76.63 4.90 76.89 4.90L76.94 4.90C77.21 4.90 77.42 4.68 77.42 4.42L77.41-2.09Z"/><path fill="#ffffff" opacity="1" d="M87.41-2.57L82.78-2.57C82.51-2.57 82.29-2.35 82.29-2.09L82.29-2.06C82.29-1.79 82.51-1.57 82.78-1.57L84.43-1.57C84.52-1.57 84.59-1.50 84.59-1.42L84.59 4.42C84.59 4.68 84.80 4.90 85.07 4.90L85.12 4.90C85.38 4.90 85.60 4.68 85.60 4.42L85.60-1.42C85.60-1.50 85.66-1.57 85.74-1.57L87.41-1.57C87.67-1.57 87.89-1.79 87.89-2.06L87.89-2.09C87.89-2.35 87.67-2.57 87.41-2.57Z"/><path fill="#ffffff" opacity="1" d="M92.76 4.42C92.76 4.68 92.88 4.90 93.10 4.90C93.57 4.90 93.41 4.35 93.76 4.54C94.51 4.98 95.55 5.10 96.16 5.10C98.03 5.10 99.41 3.54 99.41 1.86C99.41 0.33 98.33-1.12 96.16-1.12C95.30-1.12 94.49-1.03 94.02-0.97C93.90-0.95 93.77-0.98 93.77-1.17C93.77-1.37 93.77-2.10 93.77-2.10C93.77-2.37 93.56-2.57 93.29-2.57L93.24-2.57C92.98-2.57 92.76-2.37 92.76-2.10ZM93.77 3.50C93.77 3.11 93.77 1.47 93.77 0.69C93.77 0.08 94.05-0.19 96.18-0.19C97.70-0.17 98.41 0.81 98.41 1.86C98.41 3.08 97.50 4.17 96.18 4.17C95.18 4.17 93.77 3.98 93.77 3.50Z"/></g><g transform="matrix(0.5 0 0 0.5 114.44890409951847 247.13476868287114)"  >
<g style=""   >
		<g transform="matrix(2.3029242925788016 -5.6405e-16 5.6405e-16 2.3029242925788016 1.421085e-14 0)"  >
<path style="stroke: none; stroke-width: 0; stroke-dasharray: none; stroke-linecap: butt; stroke-dashoffset: 0; stroke-linejoin: miter; stroke-miterlimit: 4; fill: rgb(255,255,255); fill-rule: nonzero; opacity: 1;"  transform=" translate(-49.99270999999998, -49.99952749999999)" d="m 91.844 22.277 c -1.125 16.582 -5.3203 32.738 -12.602 46.156 c -6.7383 12.426 -16.117 22.531 -28.148 28.52 l -1.0977 0.54688 l -1.0977 -0.54688 c -12.027 -5.9883 -21.41 -16.094 -28.148 -28.52 c -7.2773 -13.418 -11.477 -29.578 -12.602 -46.156 l -0.17969 -2.6641 l 2.6719 0.046875 c 7.0625 0.125 13.992 -1.2031 20.387 -3.8164 c 6.3867 -2.6133 12.258 -6.5234 17.211 -11.559 l 1.7539 -1.7852 l 1.7539 1.7852 c 4.9531 5.0352 10.824 8.9453 17.211 11.559 c 6.3984 2.6133 13.328 3.9414 20.387 3.8164 l 2.6719 -0.046875 l -0.17969 2.6641 z m -17.449 11.77 c -4.2578 -0.91016 -8.418 -2.2344 -12.418 -3.9453 c -4.1953 -1.7969 -8.2109 -4.0195 -11.977 -6.6367 c -3.7656 2.6172 -7.7812 4.8398 -11.977 6.6367 c -4 1.7109 -8.1602 3.0312 -12.418 3.9453 c 1.7188 9.2812 4.6992 18.762 9.2422 27.105 c 3.8594 7.0898 8.8516 13.359 15.152 17.957 c 6.3008 -4.5977 11.293 -10.867 15.152 -17.957 c 4.543 -8.3438 7.5234 -17.828 9.2422 -27.105 z m -10.492 -8.4688 c 4.3906 1.8789 9.0078 3.2539 13.75 4.0859 l 2.3945 0.42188 l -0.39062 2.3984 c -1.7148 10.508 -4.9727 21.441 -10.188 31.02 c -4.4922 8.25 -10.438 15.504 -18.098 20.648 l -1.3672 0.91797 l -1.3672 -0.91797 c -7.6602 -5.1406 -13.609 -12.395 -18.098 -20.648 c -5.2148 -9.5781 -8.4727 -20.512 -10.188 -31.02 l -0.39062 -2.3984 l 2.3945 -0.42188 c 4.7422 -0.83203 9.3594 -2.2109 13.75 -4.0859 c 4.3906 -1.8789 8.5742 -4.2656 12.449 -7.1133 l 1.4531 -1.0664 l 1.4531 1.0664 c 3.875 2.8516 8.0586 5.2383 12.449 7.1133 z m 11.008 40.508 c 6.5586 -12.098 10.5 -26.566 11.82 -41.535 c -6.7852 -0.20312 -13.426 -1.6328 -19.617 -4.1641 c -6.2773 -2.5664 -12.086 -6.2617 -17.117 -10.949 c -5.0273 4.6875 -10.84 8.3828 -17.117 10.949 c -6.1914 2.5312 -12.832 3.9609 -19.617 4.1641 c 1.3203 14.969 5.2617 29.438 11.82 41.535 c 6.0664 11.188 14.375 20.324 24.914 25.895 c 10.539 -5.5703 18.848 -14.707 24.914 -25.895 z" stroke-linecap="round" />
</g>
		<g transform="matrix(0.31786418729083316 0 0 0.31786418729083316 5.0803806e-13 -6.00000000000033)" clip-path="url(#CLIPPATH_76570)"  >
<clipPath id="CLIPPATH_76570" >
	<path transform="matrix(1 0 0 1 0 0) translate(-94.029, -99.999)" d="M 188.058 99.9989 L 114.017 120.67 L 94.0288 199.998 L 74.0407 120.67 L 0 99.9989 L 74.0407 79.328 L 94.0288 0 L 114.017 79.328 L 188.058 99.9989 Z" stroke-linecap="round" />
</clipPath>
<path style="stroke: none; stroke-width: 15.729988466505658; stroke-dasharray: ; stroke-linecap: butt; stroke-dashoffset: 0; stroke-linejoin: miter; stroke-miterlimit: 4; fill: rgb(255,255,255); fill-rule: nonzero; opacity: 1;"  transform=" translate(-94.029, -99.999)" d="M 188.058 99.9989 L 114.017 120.67 L 94.0288 199.998 L 74.0407 120.67 L 0 99.9989 L 74.0407 79.328 L 94.0288 0 L 114.017 79.328 L 188.058 99.9989 Z" stroke-linecap="round" />
</g>
</g>
</g>
<g transform="matrix(1 0 0 1 328.955185772046 220.0799999999999)" style=""  ><path fill="#ffffff" opacity="1" d="M-126.80-14.06L-126.86-14.06C-127.44-14.06-127.91-13.58-127.91-13.01C-127.91-13.01-127.91-0.30-127.91-0.13C-127.91 0.14-128.08 0.17-128.28 0.21C-132.81 0.85-135.72 0.78-137.68-0.03C-139.30-0.71-139.54-2.50-139.54-2.94C-139.54-3.95-139.54-13.01-139.54-13.01C-139.54-13.58-140.01-14.06-140.59-14.06L-140.65-14.06C-141.23-14.06-141.70-13.58-141.70-13.01L-141.70-2.36C-141.70-1.65-141.06 1.12-138.25 2.03C-136.09 2.74-133.93 2.88-128.49 2.40C-128.15 2.37-127.91 2.54-127.91 2.91C-127.91 4.53-127.91 9.57-127.91 9.57C-127.91 10.14-127.44 10.62-126.86 10.62L-126.80 10.62C-126.22 10.62-125.75 10.14-125.75 9.57L-125.75-13.01C-125.75-13.58-126.22-14.06-126.80-14.06Z"/><path fill="#ffffff" opacity="1" d="M-104.69-14.46C-111.75-14.46-117.47-8.78-117.47-1.72C-117.47 5.31-111.75 11.06-104.69 11.06C-97.63 11.06-92.25 5.31-92.25-1.72C-92.25-8.78-97.63-14.46-104.69-14.46ZM-104.69 9.03C-110.54 9.03-115.30 4.13-115.30-1.72C-115.30-7.60-110.54-12.47-104.69-12.47C-98.84-12.47-94.42-7.60-94.42-1.72C-94.42 4.13-98.84 9.03-104.69 9.03Z"/><path fill="#ffffff" opacity="1" d="M-68.02-14.06C-68.63-14.06-82.92-14.06-82.92-14.06C-83.50-14.06-83.97-13.58-83.97-13.01L-83.97 9.57C-83.97 10.14-83.50 10.62-82.92 10.62L-82.82 10.62C-82.25 10.62-81.77 10.14-81.77 9.57L-81.77-11.52C-81.77-11.79-81.67-11.89-81.37-11.89L-69.64-11.89C-69.30-11.89-69.20-11.79-69.20-11.52L-69.20 9.57C-69.20 10.14-68.73 10.62-68.15 10.62L-68.05 10.62C-67.48 10.62-67.00 10.14-67.00 9.57L-67.00-13.01C-67.00-13.52-67.41-14.06-68.02-14.06Z"/><path fill="#ffffff" opacity="1" d=""/><path fill="#ffffff" opacity="1" d="M-27.02-14.46C-34.08-14.46-39.79-8.78-39.79-1.72C-39.79 5.31-34.08 11.06-27.02 11.06C-19.95 11.06-14.58 5.31-14.58-1.72C-14.58-8.78-19.95-14.46-27.02-14.46ZM-27.02 9.03C-32.87 9.03-37.63 4.13-37.63-1.72C-37.63-7.60-32.87-12.47-27.02-12.47C-21.17-12.47-16.74-7.60-16.74-1.72C-16.74 4.13-21.17 9.03-27.02 9.03Z"/><path fill="#ffffff" opacity="1" d="M0.93-14.06L-5.25-14.06C-5.83-14.06-6.30-13.58-6.30-13.01L-6.30 9.57C-6.30 10.14-5.83 10.62-5.25 10.62L-5.15 10.62C-4.58 10.62-4.10 10.14-4.10 9.57L-4.10 1.63C-4.10 1.32-4.00 1.26-3.70 1.26L0.93 1.26C5.63 1.26 9.45-1.82 9.45-6.52C9.45-11.22 5.63-14.06 0.93-14.06ZM0.93-0.94L-3.73-0.94C-4.03-0.94-4.10-1.04-4.10-1.35L-4.10-11.52C-4.10-11.79-4.00-11.89-3.70-11.89L0.93-11.89C4.45-11.89 7.29-10.03 7.29-6.52C7.29-3.00 4.45-0.94 0.93-0.94Z"/><path fill="#ffffff" opacity="1" d="M34.13 10.62C34.70 10.62 35.17 10.14 35.17 9.57L35.17-12.97C35.17-13.41 34.87-13.79 34.46-13.95C33.99-14.16 33.45-14.02 33.15-13.58C33.15-13.58 21.01 4.06 20.50 4.80C19.96 5.58 19.66 5.45 19.66 4.40C19.66 3.35 19.66-13.01 19.66-13.01C19.66-13.58 19.19-14.06 18.61-14.06L18.51-14.06C17.94-14.06 17.46-13.58 17.46-13.01L17.46 9.54C17.46 9.87 17.73 10.38 18.10 10.52C18.61 10.72 19.15 10.62 19.46 10.18C19.46 10.18 31.62-7.53 32.23-8.38C32.81-9.26 32.98-8.95 32.98-8.07C32.98-7.19 32.98 9.57 32.98 9.57C32.98 10.14 33.45 10.62 34.02 10.62L34.13 10.62Z"/><path fill="#ffffff" opacity="1" d="M56.23-14.46C49.17-14.46 43.45-8.78 43.45-1.72C43.45 5.31 49.17 11.06 56.23 11.06C63.30 11.06 68.67 5.31 68.67-1.72C68.67-8.78 63.30-14.46 56.23-14.46ZM56.23 9.03C50.38 9.03 45.62 4.13 45.62-1.72C45.62-7.60 50.38-12.47 56.23-12.47C62.08-12.47 66.51-7.60 66.51-1.72C66.51 4.13 62.08 9.03 56.23 9.03Z"/><path fill="#ffffff" opacity="1" d="M93.51-14.06L93.41-14.06C92.84-14.06 92.36-13.58 92.36-13.01L92.36-3.44C92.36-3.27 92.23-3.10 92.06-3.10L79.45-3.10C79.28-3.10 79.15-3.27 79.15-3.44L79.15-13.01C79.15-13.58 78.67-14.06 78.10-14.06L78.00-14.06C77.42-14.06 76.95-13.58 76.95-13.01L76.95 9.57C76.95 10.14 77.42 10.62 78.00 10.62L78.10 10.62C78.67 10.62 79.15 10.14 79.15 9.57L79.15-0.60C79.15-0.81 79.28-0.94 79.45-0.94L92.06-0.94C92.23-0.94 92.36-0.81 92.36-0.60L92.36 9.57C92.36 10.14 92.84 10.62 93.41 10.62L93.51 10.62C94.09 10.62 94.56 10.14 94.56 9.57L94.56-13.01C94.56-13.58 94.09-14.06 93.51-14.06Z"/></g></svg>
